<svg width="27" height="32" viewBox="0 0 27 32" fill="none" xmlns="http://www.w3.org/2000/svg">
<g id="Logomark" clip-path="url(#clip0_2_39)">
<g id="Vector">
<path d="M16.7258 3.3692L14.1038 2.66663L11.8942 10.913L9.89929 3.46812L7.27722 4.1707L9.43256 12.2144L4.06412 6.84595L2.14465 8.76542L8.03315 14.654L0.699964 12.689L-0.00260925 15.311L8.00982 17.458C7.91809 17.0623 7.86955 16.65 7.86955 16.2264C7.86955 13.228 10.3002 10.7974 13.2986 10.7974C16.297 10.7974 18.7277 13.228 18.7277 16.2264C18.7277 16.6473 18.6798 17.057 18.5892 17.4504L25.871 19.4015L26.5735 16.7795L18.5292 14.624L25.8629 12.659L25.1603 10.037L17.1164 12.1923L22.4848 6.82391L20.5653 4.90445L14.7585 10.7113L16.7258 3.3692Z" fill="#FF4405"/>
<path d="M18.5815 17.4809C18.3567 18.4313 17.8821 19.2851 17.2309 19.9692L22.5063 25.2446L24.4257 23.3251L18.5815 17.4809Z" fill="#FF4405"/>
<path d="M17.1777 20.0243C16.5186 20.6975 15.6857 21.1998 14.7517 21.4587L16.6713 28.6227L19.2933 27.9201L17.1777 20.0243Z" fill="#FF4405"/>
<path d="M14.6538 21.4849C14.2204 21.5963 13.7662 21.6555 13.2982 21.6555C12.7967 21.6555 12.3111 21.5875 11.8501 21.4602L9.92877 28.6308L12.5508 29.3333L14.6538 21.4849Z" fill="#FF4405"/>
<path d="M11.7574 21.4338C10.8377 21.162 10.0196 20.6533 9.37399 19.9782L4.08566 25.2666L6.00512 27.1861L11.7574 21.4338Z" fill="#FF4405"/>
<path d="M9.33041 19.9315C8.69588 19.2522 8.23368 18.4098 8.01368 17.474L0.708086 19.4316L1.41065 22.0536L9.33041 19.9315Z" fill="#FF4405"/>
</g>
</g>
<defs>
<clipPath id="clip0_2_39">
<rect width="26.6667" height="32" fill="white"/>
</clipPath>
</defs>
</svg>
